<mxfile host="app.diagrams.net" modified="2023-10-27T03:04:39.542Z" agent="Mozilla/5.0 (Windows NT 10.0; Win64; x64) AppleWebKit/537.36 (KHTML, like Gecko) Chrome/118.0.0.0 Safari/537.36 Edg/118.0.2088.69" etag="Q39toVlVdvfssr9ZtOUz" version="22.0.8" type="google">
  <diagram name="Page-1" id="D9ZDwCjQLcGQPDt8zOu6">
    <mxGraphModel dx="1242" dy="569" grid="1" gridSize="10" guides="1" tooltips="1" connect="1" arrows="1" fold="1" page="1" pageScale="1" pageWidth="850" pageHeight="1100" math="0" shadow="0">
      <root>
        <mxCell id="0" />
        <mxCell id="1" parent="0" />
        <mxCell id="gbdUCZXBUuw7vzGxp-zC-5" value="" style="edgeStyle=orthogonalEdgeStyle;rounded=0;orthogonalLoop=1;jettySize=auto;html=1;" edge="1" parent="1" source="gbdUCZXBUuw7vzGxp-zC-1" target="gbdUCZXBUuw7vzGxp-zC-4">
          <mxGeometry relative="1" as="geometry" />
        </mxCell>
        <mxCell id="gbdUCZXBUuw7vzGxp-zC-1" value="start" style="ellipse;whiteSpace=wrap;html=1;" vertex="1" parent="1">
          <mxGeometry x="365" y="80" width="120" height="60" as="geometry" />
        </mxCell>
        <mxCell id="gbdUCZXBUuw7vzGxp-zC-9" value="" style="edgeStyle=orthogonalEdgeStyle;rounded=0;orthogonalLoop=1;jettySize=auto;html=1;" edge="1" parent="1" source="gbdUCZXBUuw7vzGxp-zC-4" target="gbdUCZXBUuw7vzGxp-zC-8">
          <mxGeometry relative="1" as="geometry" />
        </mxCell>
        <mxCell id="gbdUCZXBUuw7vzGxp-zC-4" value="insert a ATM card" style="whiteSpace=wrap;html=1;" vertex="1" parent="1">
          <mxGeometry x="365" y="170" width="120" height="40" as="geometry" />
        </mxCell>
        <mxCell id="gbdUCZXBUuw7vzGxp-zC-11" value="" style="edgeStyle=orthogonalEdgeStyle;rounded=0;orthogonalLoop=1;jettySize=auto;html=1;" edge="1" parent="1" source="gbdUCZXBUuw7vzGxp-zC-8" target="gbdUCZXBUuw7vzGxp-zC-10">
          <mxGeometry relative="1" as="geometry" />
        </mxCell>
        <mxCell id="gbdUCZXBUuw7vzGxp-zC-8" value="select your language" style="whiteSpace=wrap;html=1;" vertex="1" parent="1">
          <mxGeometry x="365" y="240" width="120" height="50" as="geometry" />
        </mxCell>
        <mxCell id="gbdUCZXBUuw7vzGxp-zC-13" value="" style="edgeStyle=orthogonalEdgeStyle;rounded=0;orthogonalLoop=1;jettySize=auto;html=1;" edge="1" parent="1" source="gbdUCZXBUuw7vzGxp-zC-10" target="gbdUCZXBUuw7vzGxp-zC-12">
          <mxGeometry relative="1" as="geometry" />
        </mxCell>
        <mxCell id="gbdUCZXBUuw7vzGxp-zC-10" value="select PIN change&amp;nbsp;&lt;br&gt;option" style="whiteSpace=wrap;html=1;" vertex="1" parent="1">
          <mxGeometry x="365" y="320" width="120" height="50" as="geometry" />
        </mxCell>
        <mxCell id="gbdUCZXBUuw7vzGxp-zC-15" value="" style="edgeStyle=orthogonalEdgeStyle;rounded=0;orthogonalLoop=1;jettySize=auto;html=1;" edge="1" parent="1" source="gbdUCZXBUuw7vzGxp-zC-12" target="gbdUCZXBUuw7vzGxp-zC-14">
          <mxGeometry relative="1" as="geometry" />
        </mxCell>
        <mxCell id="gbdUCZXBUuw7vzGxp-zC-12" value="enter the current pin" style="whiteSpace=wrap;html=1;" vertex="1" parent="1">
          <mxGeometry x="365" y="400" width="120" height="40" as="geometry" />
        </mxCell>
        <mxCell id="gbdUCZXBUuw7vzGxp-zC-17" value="" style="edgeStyle=orthogonalEdgeStyle;rounded=0;orthogonalLoop=1;jettySize=auto;html=1;" edge="1" parent="1" source="gbdUCZXBUuw7vzGxp-zC-14" target="gbdUCZXBUuw7vzGxp-zC-16">
          <mxGeometry relative="1" as="geometry" />
        </mxCell>
        <mxCell id="gbdUCZXBUuw7vzGxp-zC-14" value="enter new pin" style="whiteSpace=wrap;html=1;" vertex="1" parent="1">
          <mxGeometry x="365" y="470" width="120" height="40" as="geometry" />
        </mxCell>
        <mxCell id="gbdUCZXBUuw7vzGxp-zC-19" value="" style="edgeStyle=orthogonalEdgeStyle;rounded=0;orthogonalLoop=1;jettySize=auto;html=1;" edge="1" parent="1" source="gbdUCZXBUuw7vzGxp-zC-16">
          <mxGeometry relative="1" as="geometry">
            <mxPoint x="425" y="620" as="targetPoint" />
          </mxGeometry>
        </mxCell>
        <mxCell id="gbdUCZXBUuw7vzGxp-zC-16" value="confirm the new&lt;br&gt;PIN" style="whiteSpace=wrap;html=1;" vertex="1" parent="1">
          <mxGeometry x="365" y="530" width="120" height="50" as="geometry" />
        </mxCell>
        <mxCell id="gbdUCZXBUuw7vzGxp-zC-20" value="stop" style="ellipse;whiteSpace=wrap;html=1;" vertex="1" parent="1">
          <mxGeometry x="365" y="620" width="120" height="40" as="geometry" />
        </mxCell>
      </root>
    </mxGraphModel>
  </diagram>
</mxfile>
